<?xml version="1.0" standalone="no"?><!DOCTYPE svg PUBLIC "-//W3C//DTD SVG 1.1//EN" "http://www.w3.org/Graphics/SVG/1.1/DTD/svg11.dtd"><svg t="1588012197867" class="icon" viewBox="0 0 1164 1024" version="1.1" xmlns="http://www.w3.org/2000/svg" p-id="51822" xmlns:xlink="http://www.w3.org/1999/xlink" width="145.5" height="128"><defs><style type="text/css"></style></defs><path d="M1047.326501 0 116.366581 0c-64.006392 0-116.366581 52.367007-116.366581 116.366581l0 640.029831c0 64.006392 51.344214 126.642242 114.116436 139.195323l254.375464 50.873729c0 0-218.939092 77.575448-77.568629 77.575448l581.846541 0c141.390919 0-77.568629-77.575448-77.568629-77.575448l254.395919-50.873729c62.751766-12.553081 114.09598-75.18893 114.09598-139.195323L1163.693082 116.366581C1163.693082 52.367007 1111.326075 0 1047.326501 0zM1047.326501 750.580129 116.366581 750.580129 116.366581 104.734014l930.953102 0L1047.319683 750.580129z" p-id="51823"></path></svg>