<?xml version="1.0" standalone="no"?><!DOCTYPE svg PUBLIC "-//W3C//DTD SVG 1.1//EN" "http://www.w3.org/Graphics/SVG/1.1/DTD/svg11.dtd"><svg t="1516679701095" class="icon" style="" viewBox="0 0 1024 1024" version="1.1" xmlns="http://www.w3.org/2000/svg" p-id="10221" xmlns:xlink="http://www.w3.org/1999/xlink" width="200" height="200"><defs><style type="text/css"></style></defs><path d="M937.037 425.076l-358.357-334.049c-18.131-20.616-44.266-32.484-71.984-32.551-27.342 0-53.462 11.722-70.81 31.25l-345.165 335.131c-17.229 17.596-22.167 43.228-12.632 65.934 9.552 22.695 31.635 36.958 56.254 36.958h31.077v340.748c0 52.874 42.269 95.765 95.135 95.765h148.193c19.253 0 36.326-15.492 36.326-34.747v-226.636c0-9.628 6.358-18.258 15.977-18.258h104.606c9.619 0 16.969 8.629 16.969 18.258v226.636c0 19.256 16.079 34.747 35.335 34.747h148.193c52.867 0 96.129-42.892 96.129-95.765v-340.75h30.921c24.568 0 46.597-14.21 56.168-36.814 9.601-22.609 4.766-48.217-12.329-65.855v-0.001z" p-id="10222"></path></svg>