<?xml version="1.0" standalone="no"?><!DOCTYPE svg PUBLIC "-//W3C//DTD SVG 1.1//EN" "http://www.w3.org/Graphics/SVG/1.1/DTD/svg11.dtd"><svg t="1588012324931" class="icon" viewBox="0 0 1062 1024" version="1.1" xmlns="http://www.w3.org/2000/svg" p-id="54500" xmlns:xlink="http://www.w3.org/1999/xlink" width="132.75" height="128"><defs><style type="text/css"></style></defs><path d="M118.408488 67.904509h226.801061M423.97878 67.904509h226.801061M729.549072 67.904509h226.801061M1017.549072 0.424403H45.665782A49.061008 49.061008 0 0 0 0 49.230769v206.68435a177.740053 177.740053 0 0 0 108.392573 162.716181v511.575597a93.3687 93.3687 0 0 0 93.3687 93.3687h654.175067a93.3687 93.3687 0 0 0 93.3687-93.3687v-509.28382a177.655172 177.655172 0 0 0 113.570292-165.092838V49.230769a49.061008 49.061008 0 0 0-45.32626-48.806366z m-161.27321 955.671088H201.761273a25.464191 25.464191 0 0 1-25.464191-25.464191V432.976127h0.848807a177.655172 177.655172 0 0 0 177.145888-177.061008 177.145889 177.145889 0 1 0 354.291777 0 177.570292 177.570292 0 0 0 172.816977 176.891247v497.824934a25.464191 25.464191 0 0 1-25.464191 25.464191z" p-id="54501"></path></svg>