<?xml version="1.0" standalone="no"?><!DOCTYPE svg PUBLIC "-//W3C//DTD SVG 1.1//EN" "http://www.w3.org/Graphics/SVG/1.1/DTD/svg11.dtd"><svg t="1588011566251" class="icon" viewBox="0 0 1077 1024" version="1.1" xmlns="http://www.w3.org/2000/svg" p-id="40696" xmlns:xlink="http://www.w3.org/1999/xlink" width="134.625" height="128"><defs><style type="text/css"></style></defs><path d="M840.921431 333.229489c-23.15401 0.053847-46.200326 3.607718-68.385098 10.500075v-1.076931c-30.369445-42.484915-95.092979-150.877988-67.469707-268.155739h84.108286a36.454103 36.454103 0 0 0 35.807945-37.100262 36.50795 36.50795 0 0 0-35.754099-37.100262H459.041812a36.50795 36.50795 0 0 0-35.807945 37.100262c0 20.515529 16.046267 37.100262 35.807945 37.100262h76.515925a421.402975 421.402975 0 0 0-158.039577 198.639864c-18.523208 46.469559-30.961757 95.308365-36.884876 145.224102a275.263481 275.263481 0 0 0-43.131074-3.553872c-164.231928 0.484619-297.179021 138.385592-297.555946 308.594486 4.415416 170.58582 141.508691 305.148308 306.117545 300.571353 158.416503-4.415416 285.871249-136.447117 290.125125-300.571353-0.323079-125.731657-74.038984-238.701685-186.524393-285.817402 6.67697-68.385098 41.407985-254.047947 215.601521-329.110015-8.615445 116.846979 45.284935 216.516913 80.01595 268.101892-107.908454 77.000544-135.1548 230.032393-60.846583 341.871644 74.308217 111.785404 222.009259 140.000988 329.917713 63.054291 107.854607-77.000544 135.100954-230.032393 60.792737-341.871643-44.046465-66.285083-116.577746-106.023825-194.224448-106.400752zM221.417058 629.762352a177.585869 177.585869 0 0 0-39.900282 113.077721 38.877197 38.877197 0 0 1-32.792539 43.34646h-5.384653a38.392579 38.392579 0 0 1-35.592559-34.677168 251.6787 251.6787 0 0 1 54.600385-170.478126 36.831029 36.831029 0 0 1 53.254222-3.500025 40.169514 40.169514 0 0 1 5.815426 52.015752v0.215386z m583.696428-128.693216a33.70793 33.70793 0 0 1-15.07703 22.292465 38.769504 38.769504 0 0 0-6.461584 4.953881l-7.376975 6.461584a32.631 32.631 0 0 1-21.538614 8.292366 35.000247 35.000247 0 0 1-34.138702-35.700252 35.969485 35.969485 0 0 1 12.600089-27.300192l4.307723-4.038491c5.007728-4.792342 10.500074-9.046218 16.369346-12.761628a33.654084 33.654084 0 0 1 47.438796 10.984693 36.34641 36.34641 0 0 1 3.876951 26.815574z" p-id="40697"></path></svg>